<svg width="455" height="455" viewBox="0 0 455 455" fill="none" xmlns="http://www.w3.org/2000/svg">
<rect width="455" height="455" fill="black"/>
<path d="M44 129V327.5C45.4184 333.703 47.2171 336.521 52 340.5L222 441C229.687 443.22 233.757 442.777 241 441L406 338.5C406.316 334.436 407.324 333.112 405.5 330.5C403.676 327.888 344.5 295 344.5 295C340.22 293.487 338.432 291.913 332 295C325.568 298.087 236.5 354.5 236.5 354.5C231.675 355.729 228.857 355.869 223.5 354.5L128.5 299.5C121.479 295.706 119.311 292.24 117.5 284.5V172.5C118.849 166.891 119.942 164.365 125 161.5L219.5 103.5C226.868 99.9739 231.529 98.9888 239 102.5L331.5 156.5H341.5L404.5 117.5C407.799 114.059 407.657 111.967 404.5 108L243.5 14.5C232.718 9.71799 227.448 9.68295 219.5 14.5C219.5 14.5 53.5 114.5 50 117C46.5 119.5 44 124.5 44 129Z" fill="white"/>
<path d="M145.5 191.5L143.5 278L225.5 325V237L145.5 191.5Z" fill="white"/>
<path d="M44 129C44 133.5 44 327.5 44 327.5M44 327.5V129C44 124.5 46.5 119.5 50 117C53.5 114.5 219.5 14.5 219.5 14.5C227.448 9.68295 232.718 9.71799 243.5 14.5L404.5 108C407.657 111.967 407.799 114.059 404.5 117.5L341.5 156.5H331.5L239 102.5C231.529 98.9888 226.868 99.9739 219.5 103.5L125 161.5C119.942 164.365 118.849 166.891 117.5 172.5V284.5C119.311 292.24 121.479 295.706 128.5 299.5L223.5 354.5C228.857 355.869 231.675 355.729 236.5 354.5C236.5 354.5 325.568 298.087 332 295C338.432 291.913 340.22 293.487 344.5 295C344.5 295 403.676 327.888 405.5 330.5C407.324 333.112 406.316 334.436 406 338.5L241 441C233.757 442.777 229.687 443.22 222 441L52 340.5C47.2171 336.521 45.4184 333.703 44 327.5ZM145.5 191.5L143.5 278L225.5 325V237L145.5 191.5Z" stroke="black"/>
</svg>
