<svg width="364" height="433" viewBox="0 0 364 433" fill="none" xmlns="http://www.w3.org/2000/svg">
  <defs>
    <linearGradient id="logo-grad" x1="0%" y1="0%" x2="0%" y2="100%">
      <stop offset="0%" stop-color="#A768D4" />
      <stop offset="100%" stop-color="#572FF7" />
    </linearGradient>
  </defs>
  <path d="M0.5 118.6V317.1C1.91839 323.303 3.71713 326.121 8.5 330.1L178.5 430.6C186.187 432.82 190.257 432.377 197.5 430.6L362.5 328.1C362.816 324.036 363.824 322.712 362 320.1C360.176 317.487 301 284.6 301 284.6C296.72 283.086 294.932 281.513 288.5 284.6C282.068 287.686 193 344.1 193 344.1C188.175 345.328 185.357 345.469 180 344.1L85 289.1C77.9794 285.306 75.8106 281.84 74 274.1V162.1C75.3492 156.49 76.4425 153.965 81.5 151.1L176 93.0996C183.368 89.5736 188.029 88.5885 195.5 92.0996L288 146.1H298L361 107.1C364.299 103.659 364.157 101.566 361 97.5996L200 4.09963C189.218 -0.682341 183.948 -0.717379 176 4.09963C176 4.09963 10 104.1 6.5 106.6C3 109.1 0.5 114.1 0.5 118.6Z" fill="url(#logo-grad)"/>
  <path d="M102 181.1L100 267.6L182 314.6V226.6L102 181.1Z" fill="url(#logo-grad)"/>
</svg>
