<svg width="364" height="431" viewBox="0 0 364 431" fill="none" xmlns="http://www.w3.org/2000/svg">
<path d="M0.5 116.5V315C1.91839 321.203 3.71713 324.021 8.5 328L178.5 428.5C186.187 430.72 190.257 430.277 197.5 428.5L362.5 326C362.816 321.936 363.824 320.612 362 318C360.176 315.388 301 282.5 301 282.5C296.72 280.987 294.932 279.413 288.5 282.5C282.068 285.587 193 342 193 342C188.175 343.229 185.357 343.369 180 342L85 287C77.9794 283.206 75.8106 279.74 74 272V160C75.3492 154.391 76.4425 151.865 81.5 149L176 91C183.368 87.474 188.029 86.4888 195.5 90L288 144H298L361 105C364.299 101.559 364.157 99.4666 361 95.5L199.5 0.5H176C176 0.5 10 102 6.5 104.5C3 107 0.5 112 0.5 116.5Z" fill="#D9D9D9"/>
<path d="M102 179L100 265.5L182 312.5V224.5L102 179Z" fill="#D9D9D9"/>
<path d="M0.5 116.5C0.5 121 0.5 315 0.5 315M0.5 315V116.5C0.5 112 3 107 6.5 104.5C10 102 176 0.5 176 0.5H199.5L361 95.5C364.157 99.4666 364.299 101.559 361 105L298 144H288L195.5 90C188.029 86.4888 183.368 87.474 176 91L81.5 149C76.4425 151.865 75.3492 154.391 74 160V272C75.8106 279.74 77.9794 283.206 85 287L180 342C185.357 343.369 188.175 343.229 193 342C193 342 282.068 285.587 288.5 282.5C294.932 279.413 296.72 280.987 301 282.5C301 282.5 360.176 315.388 362 318C363.824 320.612 362.816 321.936 362.5 326L197.5 428.5C190.257 430.277 186.187 430.72 178.5 428.5L8.5 328C3.71713 324.021 1.91839 321.203 0.5 315ZM102 179L100 265.5L182 312.5V224.5L102 179Z" stroke="black"/>
</svg>
