<svg id="Layer_1" viewBox="0 0 24 24" xmlns="http://www.w3.org/2000/svg" data-name="Layer 1"><path d="m24 6.5c0 1.381-1.119 2.5-2.5 2.5h-1.394l-1.991 1.254c-.426.267-.961.283-1.401.041-.439-.243-.712-.705-.712-1.207l-.002-4.585c0-1.381 1.119-2.501 2.5-2.501h3c1.381 0 2.5 1.119 2.5 2.499zm-20.106 8.498 1.981 1.248c.428.269.967.282 1.408.039.44-.244.715-.709.715-1.213l.002-4.571c0-1.381-1.119-2.501-2.5-2.501h-3c-1.381 0-2.5 1.119-2.5 2.499v1.999c0 1.381 1.119 2.5 2.5 2.5zm-.77-8.498c.308 0 .611-.142.808-.408 1.353-1.844 3.298-3.141 5.463-3.73-.684.85-1.446 1.917-2.117 3.164-.262.486-.079 1.093.407 1.354.476.26 1.092.084 1.354-.406.988-1.837 2.217-3.273 2.962-4.062.294.311.659.717 1.059 1.214.347.432.978.498 1.405.153.431-.346.499-.975.153-1.406-.007-.009.248.044.383.041.436 0 .837-.288.961-.729.15-.532-.158-1.084-.69-1.234-1.043-.294-2.124-.449-3.215-.449-4.057 0-7.472 1.816-9.739 4.906-.326.445-.23 1.071.215 1.398.179.131.386.194.591.194zm9.876.5h-3c-.553 0-1 .448-1 1s.447 1 1 1h3c.553 0 1-.448 1-1s-.447-1-1-1zm10.951 3.911c.032.358.049.722.049 1.089 0 6.617-5.382 11.999-11.999 12s0 0 0 0c-4.071 0-7.831-2.039-10.057-5.454-.302-.462-.171-1.082.292-1.384.461-.3 1.081-.171 1.384.292 1.369 2.101 3.437 3.571 5.79 4.2-.567-.703-1.188-1.556-1.768-2.541-.28-.477-.122-1.089.354-1.369.474-.28 1.088-.123 1.369.354.916 1.555 1.97 2.783 2.637 3.49.812-.862 2.199-2.507 3.223-4.587h-4.721c-.553 0-1-.447-1-1s.447-1 1-1h5.522c.207-.675.364-1.375.434-2.097.053-.549.538-.953 1.092-.898.55.053.952.542.898 1.092-.064.654-.188 1.287-.347 1.903h3.439c.299-.948.461-1.955.461-3 0-.307-.015-.611-.041-.911-.049-.55.357-1.036.907-1.085.563-.044 1.036.358 1.085.907zm-3.304 6.089h-3.223c-.789 1.881-1.877 3.476-2.818 4.644 2.572-.696 4.733-2.389 6.042-4.644z"/></svg>